<svg xmlns="http://www.w3.org/2000/svg" class="svg-content-responsive" viewBox="0 0 400 220" preserveAspectRatio="xMinYMin meet" >

            <rect width="400" height="220"   fill="white" />
<g class="zoom-container" transform="translate(0.3167724609375,0) scale(1)"><g class="svg-coordinates" width="400" height="200" transform="translate(40,20)"><g transform="translate(0,170)" fill="none" font-size="10" font-family="sans-serif" text-anchor="middle"><path class="domain" stroke="#000000" d="M0.5,6V0.5H340.5V6" fill="none"></path><g class="tick" opacity="1" transform="translate(0.5,0)" fill="none"><line stroke="#000000" y2="6" fill="none"></line><text fill="currentColor" y="9" dy="0.71em">0</text></g><g class="tick" opacity="1" transform="translate(43,0)" fill="none"><line stroke="#000000" y2="6" fill="none"></line><text fill="currentColor" y="9" dy="0.71em">5</text></g><g class="tick" opacity="1" transform="translate(85.5,0)" fill="none"><line stroke="#000000" y2="6" fill="none"></line><text fill="currentColor" y="9" dy="0.71em">10</text></g><g class="tick" opacity="1" transform="translate(128,0)" fill="none"><line stroke="#000000" y2="6" fill="none"></line><text fill="currentColor" y="9" dy="0.71em">15</text></g><g class="tick" opacity="1" transform="translate(170.5,0)" fill="none"><line stroke="#000000" y2="6" fill="none"></line><text fill="currentColor" y="9" dy="0.71em">20</text></g><g class="tick" opacity="1" transform="translate(213,0)" fill="none"><line stroke="#000000" y2="6" fill="none"></line><text fill="currentColor" y="9" dy="0.71em">25</text></g><g class="tick" opacity="1" transform="translate(255.5,0)" fill="none"><line stroke="#000000" y2="6" fill="none"></line><text fill="currentColor" y="9" dy="0.71em">30</text></g><g class="tick" opacity="1" transform="translate(298,0)" fill="none"><line stroke="#000000" y2="6" fill="none"></line><text fill="currentColor" y="9" dy="0.71em">35</text></g><g class="tick" opacity="1" transform="translate(340.5,0)" fill="none"><line stroke="#000000" y2="6" fill="none"></line><text fill="currentColor" y="9" dy="0.71em">40</text></g></g><g fill="none" font-size="10" font-family="sans-serif" text-anchor="end"><path class="domain" stroke="#000000" d="M-6,170.5H0.5V0.5H-6" fill="none"></path><g class="tick" opacity="1" transform="translate(0,170.5)" fill="none"><line stroke="#000000" x2="-6" fill="none"></line><text fill="currentColor" x="-9" dy="0.32em">0</text></g><g class="tick" opacity="1" transform="translate(0,128)" fill="none"><line stroke="#000000" x2="-6" fill="none"></line><text fill="currentColor" x="-9" dy="0.32em">5</text></g><g class="tick" opacity="1" transform="translate(0,85.5)" fill="none"><line stroke="#000000" x2="-6" fill="none"></line><text fill="currentColor" x="-9" dy="0.32em">10</text></g><g class="tick" opacity="1" transform="translate(0,43)" fill="none"><line stroke="#000000" x2="-6" fill="none"></line><text fill="currentColor" x="-9" dy="0.32em">15</text></g><g class="tick" opacity="1" transform="translate(0,0.5)" fill="none"><line stroke="#000000" x2="-6" fill="none"></line><text fill="currentColor" x="-9" dy="0.32em">20</text></g></g><text text-anchor="end" x="350" y="200">X</text><text text-anchor="end" transform="rotate(-90)" y="5" x="10">Y</text><rect x="20" y="50" width="50" height="50" stroke="#ea526f" fill="rgba(0, 0, 0, 0)"></rect><text text-anchor="middle" font-size="0.5rem" transform="translate(20,48)" style="" fill="#ea526f">p0</text><text text-anchor="middle" font-size="0.5rem" transform="translate(20,108)" style="" fill="#ea526f">p1</text><text text-anchor="middle" font-size="0.5rem" transform="translate(70,48)" style="" fill="#ea526f">p2</text><text text-anchor="middle" font-size="0.5rem" transform="translate(70,108)" style="" fill="#ea526f">p3</text><rect x="-30" y="140" width="50" height="50" transform="translate(0,10)rotate(-45)" stroke="#0b6e4f" fill="rgba(0, 0, 0, 0)"></rect><text text-anchor="middle" font-size="0.5rem" transform="translate(72,132)" style="" fill="#0b6e4f">p0</text><text text-anchor="middle" font-size="0.5rem" transform="translate(115,90)" style="" fill="#0b6e4f">p1</text><text text-anchor="middle" font-size="0.5rem" transform="translate(115,172)" style="" fill="#0b6e4f">p2</text><text text-anchor="middle" font-size="0.5rem" transform="translate(154,132)" style="" fill="#0b6e4f">p3</text><rect x="-90" y="160" width="50" height="50" transform="translate(60,-50)rotate(-60)" stroke="#23b5d3" fill="rgba(0, 0, 0, 0)"></rect><text text-anchor="middle" font-size="0.5rem" transform="translate(148,110)" style="" fill="#23b5d3">p0</text><text text-anchor="middle" font-size="0.5rem" transform="translate(180,62)" style="" fill="#23b5d3">p1</text><text text-anchor="middle" font-size="0.5rem" transform="translate(200,140)" style="" fill="#23b5d3">p2</text><text text-anchor="middle" font-size="0.5rem" transform="translate(228,92)" style="" fill="#23b5d3">p3</text><rect x="200" y="0" width="50" height="50" transform="translate(180,-90)rotate(60)" stroke="#ffda22" fill="rgba(0, 0, 0, 0)"></rect><text text-anchor="middle" font-size="0.5rem" transform="translate(231,110)" style="" fill="#ffda22">p0</text><text text-anchor="middle" font-size="0.5rem" transform="translate(262,160)" style="" fill="#ffda22">p1</text><text text-anchor="middle" font-size="0.5rem" transform="translate(280,80)" style="" fill="#ffda22">p2</text><text text-anchor="middle" font-size="0.5rem" transform="translate(312,128)" style="" fill="#ffda22">p3</text></g></g></svg>